<svg id="Calque_1" data-name="Calque 1" xmlns="http://www.w3.org/2000/svg" viewBox="0 0 339 393"><defs><style>.cls-1{fill:#ff17e9;}</style></defs><path class="cls-1" d="M29,0a27.12,27.12,0,0,0,9.4,3.05c3.08.28,4.88,2.41,5.67,5.49,5.3,20.67,5.79,41.53,4.37,62.77-1.73,25.88-5.09,51.49-9,77.08q-5.43,35.15-10,70.42c-.78,5.92-.64,11.94-3,17.58-1.15,2.77-2.22,4.45-5.86,2.21a86.27,86.27,0,0,0-14.86-7.75c-2.88-1.07-4.39-3.46-4.76-6.49-.23-1.81,0-3.68-1-5.36V209c2.13-13.72,4-27.47,5.81-41.23,2.83-21.34,7.22-42.44,9.45-63.9,1.7-16.33,3-32.69,4.64-49C21.15,42.51,21,29.86,25,18c2-6,.54-12.28,3-18Z"/><path class="cls-1" d="M217,393c-1.26-.38-2.56-.68-3.78-1.17-2.26-.9-3.31-1.95-2.22-4.91a164.64,164.64,0,0,0,4.85-17c.7-2.84,2.05-4.85,4.83-5.82,25.24-8.82,48.21-22.18,71.22-35.46,5.9-3.41,12-6.39,18-9.75,9.32-5.28,19.24-3.73,29.13-2.87v1c-1.36,3.05-2.32,6.13-1.9,9.59.29,2.37,0,4.73-2.86,5.7-1.55.53-2.17,2-3,3.22a42.43,42.43,0,0,1-13.66,12.9c-7.33,4.25-14.54,8.7-22,12.73C272,373.91,249.4,389,222,393Z"/><path class="cls-1" d="M300.32,96.37c.3,2.37-.84,3.75-2.09,5.15-8.73,9.81-16.68,20.26-25.56,30-6.22,6.8-10.74,15.15-16,22.8-12.36,17.95-26,34.92-39.81,51.73-13.1,15.91-26.64,31.4-41,46.18-7.11,7.31-15.26,13.33-23.15,19.68-5.41,4.36-9,2.37-10.68-5.25-1.14-5.08-1.63-10.31-3.68-15.22-1.7-4.05.77-7,3.46-9.66,16.08-15.66,30.79-32.55,45.51-49.46,15.13-17.39,29.47-35.45,45.43-52.17,9.16-9.6,19.76-17.18,29.67-25.72a285.75,285.75,0,0,0,25-25.07c.67-.74,1.22-1.59,1.89-2.32,4.86-5.27,5.82-5.06,8.06,1.87C298.2,91.54,300.6,93.61,300.32,96.37Z"/></svg>