<svg width="512" height="512" viewBox="0 0 512 512" fill="none" xmlns="http://www.w3.org/2000/svg">
<path d="M0 262.866C1.81788 260.451 3.77384 258.128 4.56294 255.096C5.00686 253.39 6.08551 252.332 7.94367 252.233C19.5279 251.614 30.8025 248.237 42.6072 249.172C65.6137 250.994 88.7265 251.483 111.658 254.267C117.9 255.025 123.678 257.355 128.311 261.954C130.697 264.323 131.285 266.291 128.015 268.472C124.447 270.852 121.027 273.464 117.638 276.098C113.226 279.527 108.377 277.371 103.785 277.129C92.0306 276.51 80.2872 275.583 68.5629 274.517C48.6285 272.705 28.3738 272.897 9.29941 265.434C6.31754 264.267 2.84093 265.868 0 263.825V262.866Z" fill="#FF17E9"/>
<path d="M287.64 27C290.037 28.535 292.2 30.3836 295.036 31.2743C297.956 32.1919 298.147 34.8344 298.397 37.52C300.554 60.6204 297.419 83.1733 292.263 105.653C288.597 121.635 285.974 137.854 282.855 153.961C282.523 155.678 282.32 157.55 281.466 159.003C280.278 161.023 279.039 163.035 275.992 160.342C272.693 157.426 268.686 155.291 264.913 152.936C262.816 151.626 261.95 150.235 262.3 147.493C264.665 128.985 268.649 110.791 272.461 92.5561C275.002 80.3957 277.366 68.1968 279.654 55.9865C280.074 53.7458 280.886 51.7074 281.664 49.6268C283.906 43.6419 286.31 37.7069 285.587 31.0864C285.428 29.63 285.831 28.2321 286.682 27H287.64Z" fill="#FF17E9"/>
<path d="M512 259.03C509.996 262.758 506.866 265.756 506.002 270.269C505.351 273.669 502.278 275.297 498.764 275.457C475.022 276.542 451.42 275.491 428.101 270.561C421.588 269.184 420.594 266.231 424.66 261.019C426.119 259.148 428.066 257.523 429.045 255.436C431.902 249.345 435.903 248.503 442.438 249.813C454.087 252.148 466.034 252.871 477.979 253.186C487.183 253.429 496.372 254.399 505.558 255.168C507.968 255.369 510.15 256.443 512 258.071V259.03Z" fill="#FF17E9"/>
<path d="M251.206 485.308C248.149 481.729 244.905 478.289 242.116 474.512C240.768 472.685 241.426 470.218 241.906 468.007C246.401 447.275 253.346 427.279 260.374 407.325C264.067 396.838 264.372 396.913 272.347 404.526C274.296 406.386 276.019 408.482 277.886 410.43C279.451 412.065 279.163 413.831 278.551 415.762C273.032 433.167 267.694 450.629 261.995 467.974C259.907 474.329 256.789 480.294 252.165 485.308H251.206Z" fill="#FF17E9"/>
<path d="M364.925 166.701C365.075 161.799 368.583 158.59 371.036 155.002C381.822 139.226 393.069 123.756 405.554 109.281C413.109 100.519 420.059 90.9453 430.9 85.6173C431.878 85.1369 432.603 84.1618 433.558 83.6096C435.223 82.646 435.327 78.7216 438.503 80.7197C441.048 82.319 442.998 89.6222 442.031 91.8159C433.388 111.414 419.626 127.557 406.736 144.286C398.089 155.51 389.405 166.706 380.663 177.857C378.475 180.646 375.635 182.685 372.224 183.845C370.476 184.439 368.805 184.266 368.33 182.335C367.054 177.143 366.036 171.885 364.925 166.701Z" fill="#FF17E9"/>
<path d="M156.35 375.403C156.546 378.046 154.648 379.46 152.939 380.832C146.118 386.306 138.838 391.117 131.413 395.739C109.321 409.491 85.7226 420.215 61.9367 430.579C56.9365 432.758 55.6153 431.984 55.4226 426.666C55.3545 424.765 55.1215 422.868 54.9201 420.974C54.5491 417.475 55.8291 414.997 58.8474 412.984C76.7741 401.026 96.0767 391.465 114.722 380.763C125.086 374.813 134.744 367.789 144.733 361.269C146.319 360.233 147.718 358.944 149.652 358.391C151.798 357.777 153.099 358.244 153.532 360.478C154.494 365.45 155.413 370.43 156.35 375.403Z" fill="#FF17E9"/>
<path d="M385.368 364.579C387.652 364.618 389.436 365.657 390.804 367.295C406.619 386.233 423.321 404.473 436.963 425.128C439.306 428.674 440.687 432.876 442.346 436.845C443.945 440.675 445.635 444.412 447.869 447.95C450.764 452.538 450.037 453.652 444.731 453.863C443.147 453.926 441.512 453.973 439.999 454.387C437.169 455.161 434.679 454.526 433.201 452.185C427.253 442.764 418.036 436.333 411.226 427.665C397.656 410.392 383.646 393.464 369.809 376.401C365.721 371.359 366.503 368.933 372.813 367.417C376.997 366.412 381.208 365.515 385.368 364.579Z" fill="#FF17E9"/>
<path d="M106.026 88.2962C107.297 88.3585 109.39 88.5896 110.169 90.1936C113.669 97.3981 120.945 101.217 125.254 107.851C134.384 121.904 141.451 137.048 149.623 151.598C152.281 156.331 155.119 160.908 158.171 165.375C161.856 170.769 160.726 173.239 154.308 173.918C152.414 174.118 150.429 174.205 148.678 174.858C139.363 178.331 135.176 172.188 131.629 165.576C122.462 148.485 113.399 131.336 105.594 113.557C103.592 108.995 102.281 104.286 101.436 99.4058C101.194 98.004 100.893 96.5668 100.331 95.2705C97.9109 89.696 98.9752 88.2156 106.026 88.2962Z" fill="#FF17E9"/>
</svg>
